<svg width="114" height="11" viewBox="0 0 114 11" fill="none" xmlns="http://www.w3.org/2000/svg">
<path d="M0.601562 2.82227C0.601562 2.56706 0.688151 2.35286 0.861328 2.17969C1.04362 1.9974 1.26237 1.90625 1.51758 1.90625H9.47461C9.72982 1.90625 9.94857 1.99284 10.1309 2.16602C10.304 2.34831 10.3906 2.56706 10.3906 2.82227C10.3906 3.07747 10.2995 3.29622 10.1172 3.47852C9.94401 3.65169 9.72982 3.73828 9.47461 3.73828H6.42578V9.27539C6.37109 9.82227 6.07031 10.1185 5.52344 10.1641C5.26823 10.1641 5.04492 10.082 4.85352 9.91797C4.67122 9.74479 4.58008 9.5306 4.58008 9.27539V3.73828H1.51758C1.26237 3.73828 1.04818 3.64714 0.875 3.46484C0.692708 3.29167 0.601562 3.07747 0.601562 2.82227ZM13.3246 10.1504C13.0147 10.1504 12.7048 10.0957 12.3949 9.98633C12.0941 9.87695 11.8025 9.71745 11.5199 9.50781C11.2374 9.28906 10.9913 9.00195 10.7816 8.64648C10.572 8.29102 10.4581 7.86719 10.4398 7.375V4.46289C10.4398 4.20768 10.531 3.99805 10.7133 3.83398C10.9047 3.66081 11.128 3.57422 11.3832 3.57422C11.9301 3.61979 12.2263 3.91602 12.2719 4.46289V7.26562C12.281 7.48438 12.3266 7.67122 12.4086 7.82617C12.4906 7.97201 12.5818 8.09049 12.682 8.18164C12.7823 8.26367 12.8826 8.32747 12.9828 8.37305C13.0922 8.40951 13.2016 8.42773 13.3109 8.42773C13.4203 8.42773 13.5297 8.40951 13.6391 8.37305C13.7484 8.32747 13.8533 8.26367 13.9535 8.18164C14.0538 8.09049 14.1449 7.97201 14.227 7.82617C14.309 7.67122 14.35 7.48438 14.35 7.26562V4.46289C14.35 4.20768 14.4411 3.99805 14.6234 3.83398C14.8148 3.66081 15.0382 3.57422 15.2934 3.57422C15.8402 3.61979 16.141 3.91602 16.1957 4.46289V7.26562C16.2048 7.48438 16.2504 7.66667 16.3324 7.8125C16.4145 7.96745 16.5056 8.09049 16.6059 8.18164C16.7061 8.26367 16.8064 8.32747 16.9066 8.37305C17.016 8.40951 17.1254 8.42773 17.2348 8.42773C17.3441 8.42773 17.4535 8.40951 17.5629 8.37305C17.6723 8.32747 17.7771 8.26367 17.8773 8.18164C17.9776 8.09049 18.0688 7.97201 18.1508 7.82617C18.2328 7.67122 18.2738 7.48438 18.2738 7.26562V4.46289C18.2738 4.20768 18.365 3.99805 18.5473 3.83398C18.7387 3.66081 18.962 3.57422 19.2172 3.57422C19.7641 3.61979 20.0648 3.91602 20.1195 4.46289V7.375C20.1195 7.86719 20.0102 8.29102 19.7914 8.64648C19.5818 9.00195 19.3357 9.28906 19.0531 9.50781C18.7797 9.71745 18.488 9.87695 18.1781 9.98633C17.8773 10.0957 17.5674 10.1504 17.2484 10.1504C16.9385 10.1504 16.6286 10.0957 16.3188 9.98633C16.018 9.87695 15.7263 9.71289 15.4438 9.49414C15.3891 9.45768 15.3389 9.41667 15.2934 9.37109C15.2387 9.41667 15.1885 9.45768 15.143 9.49414C14.8604 9.71289 14.5642 9.87695 14.2543 9.98633C13.9535 10.0957 13.6436 10.1504 13.3246 10.1504ZM21.4676 3.62891C21.7137 3.63802 21.9233 3.72917 22.0965 3.90234C22.2697 4.06641 22.3608 4.27148 22.3699 4.51758V9.24805C22.3152 9.79492 22.0145 10.0911 21.4676 10.1367C21.2124 10.1367 20.9891 10.0547 20.7977 9.89062C20.6154 9.71745 20.5242 9.50326 20.5242 9.24805V4.51758C20.5333 4.26237 20.629 4.05273 20.8113 3.88867C20.9936 3.71549 21.2124 3.62891 21.4676 3.62891ZM20.3191 1.85156C20.3191 1.59635 20.4285 1.3776 20.6473 1.19531C20.866 1.01302 21.1303 0.921875 21.4402 0.921875C21.7501 0.921875 22.0145 1.01302 22.2332 1.19531C22.452 1.3776 22.5613 1.59635 22.5613 1.85156C22.5613 2.11589 22.452 2.33919 22.2332 2.52148C22.0145 2.70378 21.7501 2.79492 21.4402 2.79492C21.1303 2.79492 20.866 2.70378 20.6473 2.52148C20.4285 2.33919 20.3191 2.11589 20.3191 1.85156ZM25.6047 1.6875C25.8599 1.6875 26.0786 1.77409 26.2609 1.94727C26.4432 2.11133 26.5389 2.32096 26.548 2.57617V3.76562H31.1965C31.4517 3.76562 31.6704 3.85221 31.8527 4.02539C32.0259 4.20768 32.1125 4.42643 32.1125 4.68164C32.1125 4.93685 32.0214 5.1556 31.8391 5.33789C31.6659 5.51107 31.4517 5.59766 31.1965 5.59766H26.548V5.87109C26.5389 6.24479 26.5617 6.59115 26.6164 6.91016C26.6802 7.22005 26.826 7.49805 27.0539 7.74414C27.2818 7.99023 27.5689 8.1224 27.9152 8.14062H31.2512C31.5064 8.14974 31.716 8.24544 31.8801 8.42773C32.0533 8.61003 32.1398 8.82878 32.1398 9.08398C32.1307 9.33008 32.0396 9.53971 31.8664 9.71289C31.7023 9.87695 31.4973 9.96354 31.2512 9.97266H27.4504C26.8124 9.9362 26.2837 9.72201 25.8645 9.33008C25.4543 8.92904 25.1581 8.44141 24.9758 7.86719C24.8026 7.29297 24.7115 6.68229 24.7023 6.03516V5.59766H23.1301C22.8749 5.59766 22.6607 5.50651 22.4875 5.32422C22.3052 5.15104 22.2141 4.93685 22.2141 4.68164C22.2141 4.42643 22.3007 4.21224 22.4738 4.03906C22.6561 3.85677 22.8749 3.76562 23.1301 3.76562H24.7023V2.57617C24.7115 2.33008 24.8026 2.125 24.9758 1.96094C25.149 1.78776 25.3586 1.69661 25.6047 1.6875ZM35.0191 1.6875C35.2743 1.6875 35.4931 1.77409 35.6754 1.94727C35.8577 2.11133 35.9534 2.32096 35.9625 2.57617V3.76562H40.6109C40.8661 3.76562 41.0849 3.85221 41.2672 4.02539C41.4404 4.20768 41.527 4.42643 41.527 4.68164C41.527 4.93685 41.4358 5.1556 41.2535 5.33789C41.0803 5.51107 40.8661 5.59766 40.6109 5.59766H35.9625V5.87109C35.9534 6.24479 35.9762 6.59115 36.0309 6.91016C36.0947 7.22005 36.2405 7.49805 36.4684 7.74414C36.6962 7.99023 36.9833 8.1224 37.3297 8.14062H40.6656C40.9208 8.14974 41.1305 8.24544 41.2945 8.42773C41.4677 8.61003 41.5543 8.82878 41.5543 9.08398C41.5452 9.33008 41.454 9.53971 41.2809 9.71289C41.1168 9.87695 40.9117 9.96354 40.6656 9.97266H36.8648C36.2268 9.9362 35.6982 9.72201 35.2789 9.33008C34.8687 8.92904 34.5725 8.44141 34.3902 7.86719C34.2171 7.29297 34.1259 6.68229 34.1168 6.03516V5.59766H32.5445C32.2893 5.59766 32.0751 5.50651 31.902 5.32422C31.7197 5.15104 31.6285 4.93685 31.6285 4.68164C31.6285 4.42643 31.7151 4.21224 31.8883 4.03906C32.0706 3.85677 32.2893 3.76562 32.5445 3.76562H34.1168V2.57617C34.1259 2.33008 34.2171 2.125 34.3902 1.96094C34.5634 1.78776 34.773 1.69661 35.0191 1.6875ZM44.2695 9.97266C43.4674 9.94531 42.8613 9.75846 42.4512 9.41211C42.041 9.05664 41.7448 8.66016 41.5625 8.22266C41.3802 7.77604 41.2891 7.32487 41.2891 6.86914C41.2891 6.39518 41.3757 5.93945 41.5488 5.50195C41.7311 5.05534 42.0273 4.65885 42.4375 4.3125C42.8568 3.95703 43.3854 3.77474 44.0234 3.76562H49.2188C49.474 3.76562 49.6882 3.85221 49.8613 4.02539C50.0436 4.18945 50.1348 4.38997 50.1348 4.62695C50.1348 4.87305 50.0436 5.08268 49.8613 5.25586C49.6882 5.41992 49.474 5.50195 49.2188 5.50195H44.1055C43.9049 5.50195 43.7272 5.57031 43.5723 5.70703C43.4264 5.84375 43.3171 6.02148 43.2441 6.24023C43.1803 6.45898 43.1484 6.67318 43.1484 6.88281C43.1484 7.11068 43.1803 7.33398 43.2441 7.55273C43.3171 7.77148 43.4264 7.94922 43.5723 8.08594C43.7272 8.21354 43.9049 8.2819 44.1055 8.29102H49.2188C49.474 8.29102 49.6882 8.37305 49.8613 8.53711C50.0436 8.70117 50.1348 8.89714 50.1348 9.125C50.1348 9.36198 50.0436 9.5625 49.8613 9.72656C49.6882 9.89062 49.474 9.97266 49.2188 9.97266H44.2695ZM49.9707 6.8418C49.9707 7.01497 49.8932 7.16536 49.7383 7.29297C49.6016 7.41146 49.4284 7.4707 49.2188 7.4707H44.748C44.5384 7.4707 44.3607 7.41146 44.2148 7.29297C44.069 7.16536 43.9961 7.01497 43.9961 6.8418C43.9961 6.67773 44.069 6.5319 44.2148 6.4043C44.3607 6.28581 44.5384 6.22656 44.748 6.22656H49.2188C49.4284 6.22656 49.6061 6.29036 49.752 6.41797C49.8978 6.53646 49.9707 6.67773 49.9707 6.8418ZM50.5941 5.48828C50.7673 5.05078 51.059 4.65885 51.4691 4.3125C51.8884 3.95703 52.4171 3.77474 53.0551 3.76562H58.1957C58.4509 3.76562 58.6651 3.85677 58.8383 4.03906C59.0206 4.21224 59.1117 4.42643 59.1117 4.68164C59.1117 4.93685 59.0206 5.1556 58.8383 5.33789C58.6651 5.51107 58.4509 5.59766 58.1957 5.59766H53.0004C52.8272 5.59766 52.6768 5.67057 52.5492 5.81641C52.4216 5.95312 52.3214 6.11719 52.2484 6.30859C52.1846 6.5 52.1527 6.68229 52.1527 6.85547V9.24805C52.098 9.79492 51.7973 10.0911 51.2504 10.1367C50.9952 10.1367 50.7719 10.0547 50.5805 9.89062C50.3982 9.71745 50.307 9.50326 50.307 9.24805V6.86914H50.3207C50.3207 6.39518 50.4118 5.9349 50.5941 5.48828ZM60.4734 4.87305C60.1089 4.87305 59.8035 4.74544 59.5574 4.49023C59.3204 4.23503 59.202 3.92057 59.202 3.54688C59.202 3.16406 59.3204 2.84505 59.5574 2.58984C59.8035 2.33464 60.1089 2.20703 60.4734 2.20703C60.8471 2.20703 61.1525 2.33464 61.3895 2.58984C61.6355 2.84505 61.7586 3.16406 61.7586 3.54688C61.7586 3.92969 61.6355 4.2487 61.3895 4.50391C61.1434 4.75 60.838 4.87305 60.4734 4.87305ZM60.4734 10.1914C60.1089 10.1914 59.8035 10.0638 59.5574 9.80859C59.3204 9.55339 59.202 9.23438 59.202 8.85156C59.202 8.46875 59.3204 8.14974 59.5574 7.89453C59.8035 7.63932 60.1089 7.51172 60.4734 7.51172C60.838 7.51172 61.1434 7.63932 61.3895 7.89453C61.6355 8.14974 61.7586 8.46875 61.7586 8.85156C61.7586 9.23438 61.6355 9.55339 61.3895 9.80859C61.1434 10.0638 60.838 10.1914 60.4734 10.1914ZM64.05 9.24805C63.9953 9.79492 63.6945 10.0911 63.1477 10.1367C62.8924 10.1367 62.6691 10.0547 62.4777 9.89062C62.2954 9.71745 62.2043 9.50326 62.2043 9.24805V2.79492C62.2134 2.53971 62.3091 2.33008 62.4914 2.16602C62.6737 1.99284 62.8924 1.90625 63.1477 1.90625H68.8898C69.6919 1.93359 70.298 2.11133 70.7082 2.43945C71.1184 2.75846 71.4146 3.12305 71.5969 3.5332C71.7792 3.94336 71.8703 4.35807 71.8703 4.77734C71.8703 5.21484 71.7792 5.63867 71.5969 6.04883C71.4237 6.45898 71.1275 6.82812 70.7082 7.15625C70.298 7.47526 69.774 7.63021 69.1359 7.62109H65.6906C65.4354 7.62109 65.2212 7.52995 65.048 7.34766C64.8658 7.17448 64.7746 6.96029 64.7746 6.70508C64.7746 6.44987 64.8612 6.23568 65.0344 6.0625C65.2167 5.88021 65.4354 5.78906 65.6906 5.78906H69.218C69.3911 5.78906 69.5324 5.73438 69.6418 5.625C69.7603 5.50651 69.8469 5.37435 69.9016 5.22852C69.9562 5.07357 69.9836 4.91862 69.9836 4.76367C69.9836 4.61784 69.9562 4.47201 69.9016 4.32617C69.8469 4.17122 69.7603 4.03906 69.6418 3.92969C69.5324 3.8112 69.3911 3.7474 69.218 3.73828H64.4055C64.1685 3.7474 64.05 3.86589 64.05 4.09375V9.24805ZM72.2066 5.48828C72.3798 5.05078 72.6715 4.65885 73.0816 4.3125C73.5009 3.95703 74.0296 3.77474 74.6676 3.76562H79.8082C80.0634 3.76562 80.2776 3.85677 80.4508 4.03906C80.6331 4.21224 80.7242 4.42643 80.7242 4.68164C80.7242 4.93685 80.6331 5.1556 80.4508 5.33789C80.2776 5.51107 80.0634 5.59766 79.8082 5.59766H74.6129C74.4397 5.59766 74.2893 5.67057 74.1617 5.81641C74.0341 5.95312 73.9339 6.11719 73.8609 6.30859C73.7971 6.5 73.7652 6.68229 73.7652 6.85547V9.24805C73.7105 9.79492 73.4098 10.0911 72.8629 10.1367C72.6077 10.1367 72.3844 10.0547 72.193 9.89062C72.0107 9.71745 71.9195 9.50326 71.9195 9.24805V6.86914H71.9332C71.9332 6.39518 72.0244 5.9349 72.2066 5.48828ZM83.5078 9.97266C82.7057 9.94531 82.0996 9.75846 81.6895 9.41211C81.2793 9.05664 80.9831 8.66016 80.8008 8.22266C80.6185 7.77604 80.5273 7.32487 80.5273 6.86914C80.5273 6.39518 80.6139 5.93945 80.7871 5.50195C80.9694 5.05534 81.2656 4.65885 81.6758 4.3125C82.0951 3.95703 82.6237 3.77474 83.2617 3.76562H87.6914C88.3294 3.77474 88.8535 3.95703 89.2637 4.3125C89.6829 4.65885 89.9792 5.05534 90.1523 5.50195C90.3346 5.93945 90.4258 6.39518 90.4258 6.86914C90.4258 7.32487 90.3346 7.77604 90.1523 8.22266C89.9701 8.66016 89.6738 9.05664 89.2637 9.41211C88.8535 9.75846 88.2474 9.94531 87.4453 9.97266H83.5078ZM83.207 5.59766C83.0339 5.59766 82.8835 5.67057 82.7559 5.81641C82.6283 5.95312 82.5326 6.11719 82.4688 6.30859C82.4141 6.49089 82.3867 6.67318 82.3867 6.85547C82.3867 7.04688 82.4141 7.23828 82.4688 7.42969C82.5326 7.61198 82.6283 7.77604 82.7559 7.92188C82.8835 8.05859 83.0339 8.13151 83.207 8.14062H87.7461C87.9193 8.13151 88.0697 8.05859 88.1973 7.92188C88.3249 7.77604 88.416 7.61198 88.4707 7.42969C88.5345 7.23828 88.5664 7.04688 88.5664 6.85547C88.5664 6.67318 88.5345 6.49089 88.4707 6.30859C88.416 6.11719 88.3249 5.95312 88.1973 5.81641C88.0697 5.67057 87.9193 5.59766 87.7461 5.59766H83.207ZM93.7289 10.1367C93.4828 10.1276 93.2732 10.041 93.1 9.87695C92.9268 9.70378 92.8357 9.49414 92.8266 9.24805V7.40234H91.2543C90.9991 7.40234 90.7803 7.31576 90.598 7.14258C90.4249 6.96029 90.3383 6.74154 90.3383 6.48633C90.3383 6.23112 90.4294 6.01693 90.6117 5.84375C90.7849 5.66146 90.9991 5.57031 91.2543 5.57031H92.8266C92.8539 5.03255 92.9451 4.51302 93.1 4.01172C93.2823 3.4375 93.5785 2.95443 93.9887 2.5625C94.4079 2.16146 94.9366 1.94271 95.5746 1.90625H99.3754C99.6215 1.91536 99.8266 2.00651 99.9906 2.17969C100.164 2.34375 100.255 2.54883 100.264 2.79492C100.264 3.05013 100.177 3.26888 100.004 3.45117C99.8402 3.63346 99.6306 3.72917 99.3754 3.73828H96.0395C95.6931 3.75651 95.406 3.88867 95.1781 4.13477C94.9503 4.38086 94.809 4.65885 94.7543 4.96875C94.7087 5.16927 94.6814 5.36979 94.6723 5.57031H99.3207C99.5759 5.57031 99.7901 5.66146 99.9633 5.84375C100.146 6.01693 100.237 6.23112 100.237 6.48633C100.237 6.74154 100.15 6.96029 99.977 7.14258C99.7947 7.31576 99.5759 7.40234 99.3207 7.40234H94.6723V9.24805C94.6631 9.50326 94.5674 9.71745 94.3852 9.89062C94.2029 10.0547 93.9841 10.1367 93.7289 10.1367ZM101.229 3.62891C101.475 3.63802 101.685 3.72917 101.858 3.90234C102.031 4.06641 102.123 4.27148 102.132 4.51758V9.24805C102.077 9.79492 101.776 10.0911 101.229 10.1367C100.974 10.1367 100.751 10.0547 100.559 9.89062C100.377 9.71745 100.286 9.50326 100.286 9.24805V4.51758C100.295 4.26237 100.391 4.05273 100.573 3.88867C100.755 3.71549 100.974 3.62891 101.229 3.62891ZM100.081 1.85156C100.081 1.59635 100.19 1.3776 100.409 1.19531C100.628 1.01302 100.892 0.921875 101.202 0.921875C101.512 0.921875 101.776 1.01302 101.995 1.19531C102.214 1.3776 102.323 1.59635 102.323 1.85156C102.323 2.11589 102.214 2.33919 101.995 2.52148C101.776 2.70378 101.512 2.79492 101.202 2.79492C100.892 2.79492 100.628 2.70378 100.409 2.52148C100.19 2.33919 100.081 2.11589 100.081 1.85156ZM103.343 1.6875C103.589 1.69661 103.799 1.78776 103.972 1.96094C104.145 2.125 104.236 2.33008 104.245 2.57617V9.27539C104.191 9.82227 103.89 10.1185 103.343 10.1641C103.088 10.1641 102.864 10.082 102.673 9.91797C102.491 9.74479 102.4 9.5306 102.4 9.27539V2.57617C102.409 2.32096 102.504 2.11133 102.687 1.94727C102.869 1.77409 103.088 1.6875 103.343 1.6875ZM107.384 9.97266C106.582 9.94531 105.976 9.75846 105.566 9.41211C105.156 9.05664 104.86 8.66016 104.677 8.22266C104.495 7.77604 104.404 7.32487 104.404 6.86914C104.404 6.39518 104.49 5.93945 104.664 5.50195C104.846 5.05534 105.142 4.65885 105.552 4.3125C105.972 3.95703 106.5 3.77474 107.138 3.76562H112.334C112.589 3.76562 112.803 3.85221 112.976 4.02539C113.158 4.18945 113.25 4.38997 113.25 4.62695C113.25 4.87305 113.158 5.08268 112.976 5.25586C112.803 5.41992 112.589 5.50195 112.334 5.50195H107.22C107.02 5.50195 106.842 5.57031 106.687 5.70703C106.541 5.84375 106.432 6.02148 106.359 6.24023C106.295 6.45898 106.263 6.67318 106.263 6.88281C106.263 7.11068 106.295 7.33398 106.359 7.55273C106.432 7.77148 106.541 7.94922 106.687 8.08594C106.842 8.21354 107.02 8.2819 107.22 8.29102H112.334C112.589 8.29102 112.803 8.37305 112.976 8.53711C113.158 8.70117 113.25 8.89714 113.25 9.125C113.25 9.36198 113.158 9.5625 112.976 9.72656C112.803 9.89062 112.589 9.97266 112.334 9.97266H107.384ZM113.086 6.8418C113.086 7.01497 113.008 7.16536 112.853 7.29297C112.716 7.41146 112.543 7.4707 112.334 7.4707H107.863C107.653 7.4707 107.476 7.41146 107.33 7.29297C107.184 7.16536 107.111 7.01497 107.111 6.8418C107.111 6.67773 107.184 6.5319 107.33 6.4043C107.476 6.28581 107.653 6.22656 107.863 6.22656H112.334C112.543 6.22656 112.721 6.29036 112.867 6.41797C113.013 6.53646 113.086 6.67773 113.086 6.8418Z" fill="#545454"/>
</svg>
