<svg width="193" height="26" viewBox="0 0 193 26" fill="none" xmlns="http://www.w3.org/2000/svg">
<path d="M12.9219 0.820312C14.276 0.820312 15.6042 0.976562 16.9062 1.28906C18.2344 1.60156 19.4974 2.07031 20.6953 2.69531C21.8932 3.29427 22.9479 4.10156 23.8594 5.11719C24.7969 6.13281 25.3047 7.34375 25.3828 8.75V10.3906V22.8516C25.2266 24.4141 24.3672 25.2604 22.8047 25.3906C22.0755 25.3906 21.4375 25.1562 20.8906 24.6875C20.3698 24.1927 20.1094 23.5807 20.1094 22.8516V9.96094C20.0573 9.15365 19.7448 8.48958 19.1719 7.96875C18.625 7.42188 18 6.99219 17.2969 6.67969C16.6198 6.36719 15.9036 6.13281 15.1484 5.97656C14.4193 5.82031 13.6771 5.74219 12.9219 5.74219C12.1667 5.74219 11.4115 5.82031 10.6562 5.97656C9.92708 6.13281 9.21094 6.36719 8.50781 6.67969C7.83073 6.99219 7.20573 7.42188 6.63281 7.96875C6.08594 8.48958 5.78646 9.15365 5.73438 9.96094V22.8516C5.60417 24.4141 4.75781 25.2604 3.19531 25.3906C2.46615 25.3906 1.82812 25.1562 1.28125 24.6875C0.760417 24.1927 0.5 23.5807 0.5 22.8516V10.3906V8.75C0.578125 7.34375 1.07292 6.13281 1.98438 5.11719C2.89583 4.10156 3.95052 3.29427 5.14844 2.69531C6.34635 2.07031 7.59635 1.60156 8.89844 1.28906C10.2266 0.976562 11.5677 0.820312 12.9219 0.820312ZM35.0938 18.8672C35.0938 18.138 35.3411 17.526 35.8359 17.0312C36.3568 16.5104 36.9818 16.25 37.7109 16.25H43.6875L42.6719 13.3594C42.2552 12.2917 41.8385 11.2891 41.4219 10.3516C41.0312 9.38802 40.5755 8.51562 40.0547 7.73438C39.5859 6.95312 39.0521 6.53646 38.4531 6.48438C37.8281 6.53646 37.2682 6.95312 36.7734 7.73438C36.2786 8.51562 35.8229 9.38802 35.4062 10.3516C35.0156 11.2891 34.612 12.2917 34.1953 13.3594L30.4844 23.5156C30.224 24.0625 29.8854 24.5182 29.4688 24.8828C29.0781 25.2214 28.4792 25.3906 27.6719 25.3906C26.9167 25.3906 26.2917 25.1302 25.7969 24.6094C25.3281 24.0885 25.1198 23.4635 25.1719 22.7344C25.1979 22.3958 25.276 22.0833 25.4062 21.7969L29.7031 10.7031C30.901 7.78646 32.099 5.42969 33.2969 3.63281C34.4688 1.86198 36.1875 0.963542 38.4531 0.9375C40.6927 0.963542 42.3984 1.86198 43.5703 3.63281C44.7682 5.3776 45.9661 7.73438 47.1641 10.7031L51.4609 21.7969C51.5911 22.0833 51.6693 22.3958 51.6953 22.7344C51.7474 23.4635 51.526 24.0885 51.0312 24.6094C50.5625 25.1302 49.9505 25.3906 49.1953 25.3906C48.3359 25.3906 47.6979 25.2214 47.2812 24.8828C46.8906 24.5182 46.5651 24.0625 46.3047 23.5156L45.5625 21.4844H37.7109C36.9818 21.4844 36.3698 21.224 35.875 20.7031C35.3542 20.2083 35.0938 19.5964 35.0938 18.8672ZM59.8828 0.820312C60.7943 0.820312 61.6797 0.976562 62.5391 1.28906C63.4245 1.60156 64.2708 2.05729 65.0781 2.65625C65.2083 2.78646 65.3516 2.91667 65.5078 3.04688C65.638 2.91667 65.7812 2.78646 65.9375 2.65625C66.7448 2.05729 67.5781 1.60156 68.4375 1.28906C69.3229 0.976562 70.2083 0.820312 71.0938 0.820312C72.0052 0.820312 72.8906 0.976562 73.75 1.28906C74.6354 1.60156 75.4688 2.07031 76.25 2.69531C77.0573 3.29427 77.7604 4.10156 78.3594 5.11719C78.9844 6.13281 79.2969 7.34375 79.2969 8.75V22.8516C79.1406 24.4141 78.2812 25.2604 76.7188 25.3906C75.9896 25.3906 75.3516 25.1562 74.8047 24.6875C74.2839 24.1927 74.0234 23.5807 74.0234 22.8516V9.0625C74.0234 8.4375 73.9062 7.91667 73.6719 7.5C73.4375 7.05729 73.1771 6.71875 72.8906 6.48438C72.6042 6.22396 72.3047 6.04167 71.9922 5.9375C71.6797 5.80729 71.3672 5.74219 71.0547 5.74219C70.7422 5.74219 70.4297 5.80729 70.1172 5.9375C69.8307 6.04167 69.5443 6.22396 69.2578 6.48438C68.9714 6.71875 68.7109 7.05729 68.4766 7.5C68.2422 7.91667 68.112 8.4375 68.0859 9.0625V22.8516C67.9297 24.4141 67.0703 25.2604 65.5078 25.3906C64.7786 25.3906 64.1406 25.1562 63.5938 24.6875C63.0729 24.1927 62.8125 23.5807 62.8125 22.8516V9.0625C62.8125 8.4375 62.6953 7.91667 62.4609 7.5C62.2266 7.05729 61.9661 6.71875 61.6797 6.48438C61.3932 6.22396 61.0938 6.04167 60.7812 5.9375C60.4688 5.80729 60.1562 5.74219 59.8438 5.74219C59.5312 5.74219 59.2188 5.80729 58.9062 5.9375C58.6198 6.04167 58.3333 6.22396 58.0469 6.48438C57.7604 6.71875 57.5 7.05729 57.2656 7.5C57.0312 7.91667 56.901 8.4375 56.875 9.0625V22.8516C56.7448 24.4141 55.8984 25.2604 54.3359 25.3906C53.6068 25.3906 52.9688 25.1562 52.4219 24.6875C51.901 24.1927 51.6406 23.5807 51.6406 22.8516V8.75C51.6927 7.34375 52.0182 6.13281 52.6172 5.11719C53.2161 4.10156 53.9193 3.29427 54.7266 2.69531C55.5339 2.07031 56.3672 1.60156 57.2266 1.28906C58.112 0.976562 58.9974 0.820312 59.8828 0.820312ZM87.4844 1.875H89.2812H102.562C103.292 1.90104 103.891 2.17448 104.359 2.69531C104.854 3.21615 105.102 3.84115 105.102 4.57031C104.971 6.13281 104.125 6.97917 102.562 7.10938H88.8125C87.8229 7.16146 87.0026 7.53906 86.3516 8.24219C85.7005 8.94531 85.2188 9.7526 84.9062 10.6641C84.6198 11.5495 84.4766 12.4609 84.4766 13.3984C84.4766 14.3359 84.6198 15.2604 84.9062 16.1719C85.2188 17.0573 85.7005 17.8516 86.3516 18.5547C87.0026 19.2578 87.8229 19.6354 88.8125 19.6875H102.562C103.292 19.7135 103.891 19.987 104.359 20.5078C104.854 21.0286 105.102 21.6536 105.102 22.3828C105.076 23.0859 104.815 23.6849 104.32 24.1797C103.852 24.6484 103.266 24.8958 102.562 24.9219H88.2266H87.4844C85.6615 24.8177 84.151 24.1276 82.9531 22.8516C81.7812 21.5495 80.9349 20.0781 80.4141 18.4375C79.9193 16.7969 79.6719 15.1172 79.6719 13.3984C79.6719 11.6797 79.9323 10 80.4531 8.35938C80.974 6.71875 81.8203 5.26042 82.9922 3.98438C84.1641 2.68229 85.6615 1.97917 87.4844 1.875ZM105.023 13.2422C105.023 13.9714 104.763 14.5833 104.242 15.0781C103.747 15.599 103.135 15.8594 102.406 15.8594H90.6094C89.8802 15.8594 89.2552 15.612 88.7344 15.1172C88.2396 14.5964 87.9922 13.9714 87.9922 13.2422C87.9922 12.513 88.2396 11.888 88.7344 11.3672C89.2552 10.8724 89.8802 10.625 90.6094 10.625H102.406C103.135 10.625 103.747 10.8854 104.242 11.4062C104.763 11.901 105.023 12.513 105.023 13.2422ZM121.961 1.875C123.784 1.97917 125.281 2.68229 126.453 3.98438C127.625 5.26042 128.471 6.71875 128.992 8.35938C129.513 10 129.773 11.6797 129.773 13.3984C129.773 15.1172 129.513 16.7969 128.992 18.4375C128.497 20.0781 127.651 21.5495 126.453 22.8516C125.281 24.1276 123.784 24.8177 121.961 24.9219H107.586C106.883 24.8958 106.284 24.6484 105.789 24.1797C105.32 23.6849 105.073 23.0859 105.047 22.3828V12.6953C105.073 11.9661 105.346 11.3672 105.867 10.8984C106.388 10.4036 107.013 10.1562 107.742 10.1562C108.445 10.1823 109.044 10.4427 109.539 10.9375C110.034 11.4062 110.294 11.9922 110.32 12.6953V18.6328C110.32 19.3359 110.685 19.6875 111.414 19.6875H120.633C121.622 19.6354 122.443 19.2578 123.094 18.5547C123.745 17.8516 124.214 17.0573 124.5 16.1719C124.812 15.2604 124.969 14.3359 124.969 13.3984C124.969 12.4609 124.812 11.5495 124.5 10.6641C124.214 9.7526 123.745 8.94531 123.094 8.24219C122.443 7.53906 121.622 7.16146 120.633 7.10938H107.586C106.023 6.97917 105.177 6.13281 105.047 4.57031C105.047 3.84115 105.281 3.21615 105.75 2.69531C106.245 2.17448 106.857 1.90104 107.586 1.875H121.961ZM134.055 10.3516C133.013 10.3516 132.141 9.98698 131.438 9.25781C130.76 8.52865 130.422 7.63021 130.422 6.5625C130.422 5.46875 130.76 4.55729 131.438 3.82812C132.141 3.09896 133.013 2.73438 134.055 2.73438C135.122 2.73438 135.995 3.09896 136.672 3.82812C137.375 4.55729 137.727 5.46875 137.727 6.5625C137.727 7.65625 137.375 8.56771 136.672 9.29688C135.969 10 135.096 10.3516 134.055 10.3516ZM134.055 25.5469C133.013 25.5469 132.141 25.1823 131.438 24.4531C130.76 23.724 130.422 22.8125 130.422 21.7188C130.422 20.625 130.76 19.7135 131.438 18.9844C132.141 18.2552 133.013 17.8906 134.055 17.8906C135.096 17.8906 135.969 18.2552 136.672 18.9844C137.375 19.7135 137.727 20.625 137.727 21.7188C137.727 22.8125 137.375 23.724 136.672 24.4531C135.969 25.1823 135.096 25.5469 134.055 25.5469ZM147.281 0.820312C148.193 0.820312 149.078 0.976562 149.938 1.28906C150.823 1.60156 151.669 2.05729 152.477 2.65625C152.607 2.78646 152.75 2.91667 152.906 3.04688C153.036 2.91667 153.18 2.78646 153.336 2.65625C154.143 2.05729 154.977 1.60156 155.836 1.28906C156.721 0.976562 157.607 0.820312 158.492 0.820312C159.404 0.820312 160.289 0.976562 161.148 1.28906C162.034 1.60156 162.867 2.07031 163.648 2.69531C164.456 3.29427 165.159 4.10156 165.758 5.11719C166.383 6.13281 166.695 7.34375 166.695 8.75V22.8516C166.539 24.4141 165.68 25.2604 164.117 25.3906C163.388 25.3906 162.75 25.1562 162.203 24.6875C161.682 24.1927 161.422 23.5807 161.422 22.8516V9.0625C161.422 8.4375 161.305 7.91667 161.07 7.5C160.836 7.05729 160.576 6.71875 160.289 6.48438C160.003 6.22396 159.703 6.04167 159.391 5.9375C159.078 5.80729 158.766 5.74219 158.453 5.74219C158.141 5.74219 157.828 5.80729 157.516 5.9375C157.229 6.04167 156.943 6.22396 156.656 6.48438C156.37 6.71875 156.109 7.05729 155.875 7.5C155.641 7.91667 155.51 8.4375 155.484 9.0625V22.8516C155.328 24.4141 154.469 25.2604 152.906 25.3906C152.177 25.3906 151.539 25.1562 150.992 24.6875C150.471 24.1927 150.211 23.5807 150.211 22.8516V9.0625C150.211 8.4375 150.094 7.91667 149.859 7.5C149.625 7.05729 149.365 6.71875 149.078 6.48438C148.792 6.22396 148.492 6.04167 148.18 5.9375C147.867 5.80729 147.555 5.74219 147.242 5.74219C146.93 5.74219 146.617 5.80729 146.305 5.9375C146.018 6.04167 145.732 6.22396 145.445 6.48438C145.159 6.71875 144.898 7.05729 144.664 7.5C144.43 7.91667 144.299 8.4375 144.273 9.0625V22.8516C144.143 24.4141 143.297 25.2604 141.734 25.3906C141.005 25.3906 140.367 25.1562 139.82 24.6875C139.299 24.1927 139.039 23.5807 139.039 22.8516V8.75C139.091 7.34375 139.417 6.13281 140.016 5.11719C140.615 4.10156 141.318 3.29427 142.125 2.69531C142.932 2.07031 143.766 1.60156 144.625 1.28906C145.51 0.976562 146.396 0.820312 147.281 0.820312ZM174.883 1.875H176.68H189.961C190.69 1.90104 191.289 2.17448 191.758 2.69531C192.253 3.21615 192.5 3.84115 192.5 4.57031C192.37 6.13281 191.523 6.97917 189.961 7.10938H176.211C175.221 7.16146 174.401 7.53906 173.75 8.24219C173.099 8.94531 172.617 9.7526 172.305 10.6641C172.018 11.5495 171.875 12.4609 171.875 13.3984C171.875 14.3359 172.018 15.2604 172.305 16.1719C172.617 17.0573 173.099 17.8516 173.75 18.5547C174.401 19.2578 175.221 19.6354 176.211 19.6875H189.961C190.69 19.7135 191.289 19.987 191.758 20.5078C192.253 21.0286 192.5 21.6536 192.5 22.3828C192.474 23.0859 192.214 23.6849 191.719 24.1797C191.25 24.6484 190.664 24.8958 189.961 24.9219H175.625H174.883C173.06 24.8177 171.549 24.1276 170.352 22.8516C169.18 21.5495 168.333 20.0781 167.812 18.4375C167.318 16.7969 167.07 15.1172 167.07 13.3984C167.07 11.6797 167.331 10 167.852 8.35938C168.372 6.71875 169.219 5.26042 170.391 3.98438C171.562 2.68229 173.06 1.97917 174.883 1.875ZM192.422 13.2422C192.422 13.9714 192.161 14.5833 191.641 15.0781C191.146 15.599 190.534 15.8594 189.805 15.8594H178.008C177.279 15.8594 176.654 15.612 176.133 15.1172C175.638 14.5964 175.391 13.9714 175.391 13.2422C175.391 12.513 175.638 11.888 176.133 11.3672C176.654 10.8724 177.279 10.625 178.008 10.625H189.805C190.534 10.625 191.146 10.8854 191.641 11.4062C192.161 11.901 192.422 12.513 192.422 13.2422Z" fill="#4DBFFF"/>
</svg>
