<svg width="16" height="17" viewBox="0 0 16 17" fill="none" xmlns="http://www.w3.org/2000/svg">
<path fill-rule="evenodd" clip-rule="evenodd" d="M13 6C14.6569 6 16 4.65685 16 3C16 1.34315 14.6569 0 13 0C11.3431 0 10 1.34315 10 3C10 3.15056 10.0111 3.29854 10.0325 3.44315L5.02181 6.78361C4.48852 6.29686 3.77893 6 3 6C1.34315 6 0 7.34315 0 9C0 10.6569 1.34315 12 3 12C3.94442 12 4.78691 11.5636 5.33682 10.8815L10.9759 14.3517L12.0241 12.6483L5.99943 8.94086C5.99691 8.81065 5.9861 8.68248 5.9675 8.55685L10.9782 5.21639C11.5115 5.70314 12.2211 6 13 6Z" fill="#545454"/>
<path d="M16 14C16 15.6569 14.6569 17 13 17C11.3431 17 10 15.6569 10 14C10 12.3431 11.3431 11 13 11C14.6569 11 16 12.3431 16 14Z" fill="#545454"/>
</svg>
