<svg width="69" height="10" viewBox="0 0 69 10" fill="none" xmlns="http://www.w3.org/2000/svg">
<path d="M5.22266 0.537109C5.69661 0.537109 6.16146 0.591797 6.61719 0.701172C7.08203 0.810547 7.52409 0.974609 7.94336 1.19336C8.36263 1.40299 8.73177 1.68555 9.05078 2.04102C9.37891 2.39648 9.55664 2.82031 9.58398 3.3125V3.88672V8.24805C9.5293 8.79492 9.22852 9.09115 8.68164 9.13672C8.42643 9.13672 8.20312 9.05469 8.01172 8.89062C7.82943 8.71745 7.73828 8.50326 7.73828 8.24805V3.73633C7.72005 3.45378 7.61068 3.22135 7.41016 3.03906C7.21875 2.84766 7 2.69727 6.75391 2.58789C6.51693 2.47852 6.26628 2.39648 6.00195 2.3418C5.74674 2.28711 5.48698 2.25977 5.22266 2.25977C4.95833 2.25977 4.69401 2.28711 4.42969 2.3418C4.17448 2.39648 3.92383 2.47852 3.67773 2.58789C3.44076 2.69727 3.22201 2.84766 3.02148 3.03906C2.83008 3.22135 2.72526 3.45378 2.70703 3.73633V8.24805C2.66146 8.79492 2.36523 9.09115 1.81836 9.13672C1.56315 9.13672 1.33984 9.05469 1.14844 8.89062C0.966146 8.71745 0.875 8.50326 0.875 8.24805V3.88672V3.3125C0.902344 2.82031 1.07552 2.39648 1.39453 2.04102C1.71354 1.68555 2.08268 1.40299 2.50195 1.19336C2.92122 0.974609 3.35872 0.810547 3.81445 0.701172C4.2793 0.591797 4.7487 0.537109 5.22266 0.537109ZM12.9828 6.85352C12.9828 6.59831 13.0694 6.38411 13.2426 6.21094C13.4249 6.02865 13.6436 5.9375 13.8988 5.9375H15.9906L15.6352 4.92578C15.4893 4.55208 15.3435 4.20117 15.1977 3.87305C15.0609 3.53581 14.9014 3.23047 14.7191 2.95703C14.5551 2.68359 14.3682 2.53776 14.1586 2.51953C13.9398 2.53776 13.7439 2.68359 13.5707 2.95703C13.3975 3.23047 13.238 3.53581 13.0922 3.87305C12.9555 4.20117 12.8142 4.55208 12.6684 4.92578L11.3695 8.48047C11.2784 8.67188 11.1599 8.83138 11.0141 8.95898C10.8773 9.07747 10.6677 9.13672 10.3852 9.13672C10.1208 9.13672 9.90208 9.04557 9.72891 8.86328C9.56484 8.68099 9.49193 8.46224 9.51016 8.20703C9.51927 8.08854 9.54661 7.97917 9.59219 7.87891L11.0961 3.99609C11.5154 2.97526 11.9346 2.15039 12.3539 1.52148C12.7641 0.901693 13.3656 0.58724 14.1586 0.578125C14.9424 0.58724 15.5395 0.901693 15.9496 1.52148C16.3689 2.13216 16.7882 2.95703 17.2074 3.99609L18.7113 7.87891C18.7569 7.97917 18.7842 8.08854 18.7934 8.20703C18.8116 8.46224 18.7341 8.68099 18.5609 8.86328C18.3969 9.04557 18.1827 9.13672 17.9184 9.13672C17.6176 9.13672 17.3943 9.07747 17.2484 8.95898C17.1117 8.83138 16.9978 8.67188 16.9066 8.48047L16.6469 7.76953H13.8988C13.6436 7.76953 13.4294 7.67839 13.2563 7.49609C13.074 7.32292 12.9828 7.10872 12.9828 6.85352ZM21.659 0.537109C21.978 0.537109 22.2879 0.591797 22.5887 0.701172C22.8986 0.810547 23.1948 0.970052 23.4773 1.17969C23.5229 1.22526 23.573 1.27083 23.6277 1.31641C23.6733 1.27083 23.7234 1.22526 23.7781 1.17969C24.0607 0.970052 24.3523 0.810547 24.6531 0.701172C24.963 0.591797 25.2729 0.537109 25.5828 0.537109C25.9018 0.537109 26.2117 0.591797 26.5125 0.701172C26.8224 0.810547 27.1141 0.974609 27.3875 1.19336C27.6701 1.40299 27.9161 1.68555 28.1258 2.04102C28.3445 2.39648 28.4539 2.82031 28.4539 3.3125V8.24805C28.3992 8.79492 28.0984 9.09115 27.5516 9.13672C27.2964 9.13672 27.073 9.05469 26.8816 8.89062C26.6993 8.71745 26.6082 8.50326 26.6082 8.24805V3.42188C26.6082 3.20312 26.5672 3.02083 26.4852 2.875C26.4031 2.72005 26.312 2.60156 26.2117 2.51953C26.1115 2.42839 26.0066 2.36458 25.8973 2.32812C25.7879 2.28255 25.6785 2.25977 25.5691 2.25977C25.4598 2.25977 25.3504 2.28255 25.241 2.32812C25.1408 2.36458 25.0405 2.42839 24.9402 2.51953C24.84 2.60156 24.7488 2.72005 24.6668 2.875C24.5848 3.02083 24.5392 3.20312 24.5301 3.42188V8.24805C24.4754 8.79492 24.1746 9.09115 23.6277 9.13672C23.3725 9.13672 23.1492 9.05469 22.9578 8.89062C22.7755 8.71745 22.6844 8.50326 22.6844 8.24805V3.42188C22.6844 3.20312 22.6434 3.02083 22.5613 2.875C22.4793 2.72005 22.3882 2.60156 22.2879 2.51953C22.1876 2.42839 22.0828 2.36458 21.9734 2.32812C21.8641 2.28255 21.7547 2.25977 21.6453 2.25977C21.5359 2.25977 21.4266 2.28255 21.3172 2.32812C21.2169 2.36458 21.1167 2.42839 21.0164 2.51953C20.9161 2.60156 20.825 2.72005 20.743 2.875C20.6609 3.02083 20.6154 3.20312 20.6063 3.42188V8.24805C20.5607 8.79492 20.2645 9.09115 19.7176 9.13672C19.4624 9.13672 19.2391 9.05469 19.0477 8.89062C18.8654 8.71745 18.7742 8.50326 18.7742 8.24805V3.3125C18.7924 2.82031 18.9064 2.39648 19.116 2.04102C19.3257 1.68555 19.5717 1.40299 19.8543 1.19336C20.1368 0.974609 20.4285 0.810547 20.7293 0.701172C21.0392 0.591797 21.3491 0.537109 21.659 0.537109ZM31.3195 0.90625H31.9484H36.5969C36.8521 0.915365 37.0617 1.01107 37.2258 1.19336C37.399 1.37565 37.4855 1.5944 37.4855 1.84961C37.44 2.39648 37.1437 2.69271 36.5969 2.73828H31.7844C31.438 2.75651 31.1509 2.88867 30.923 3.13477C30.6952 3.38086 30.5266 3.66341 30.4172 3.98242C30.3169 4.29232 30.2668 4.61133 30.2668 4.93945C30.2668 5.26758 30.3169 5.59115 30.4172 5.91016C30.5266 6.22005 30.6952 6.49805 30.923 6.74414C31.1509 6.99023 31.438 7.1224 31.7844 7.14062H36.5969C36.8521 7.14974 37.0617 7.24544 37.2258 7.42773C37.399 7.61003 37.4855 7.82878 37.4855 8.08398C37.4764 8.33008 37.3853 8.53971 37.2121 8.71289C37.048 8.87695 36.843 8.96354 36.5969 8.97266H31.5793H31.3195C30.6815 8.9362 30.1529 8.69466 29.7336 8.24805C29.3234 7.79232 29.0272 7.27734 28.8449 6.70312C28.6717 6.12891 28.5852 5.54102 28.5852 4.93945C28.5852 4.33789 28.6763 3.75 28.8586 3.17578C29.0409 2.60156 29.3371 2.09115 29.7473 1.64453C30.1574 1.1888 30.6815 0.942708 31.3195 0.90625ZM37.4582 4.88477C37.4582 5.13997 37.3671 5.35417 37.1848 5.52734C37.0116 5.70964 36.7974 5.80078 36.5422 5.80078H32.4133C32.1581 5.80078 31.9393 5.71419 31.757 5.54102C31.5839 5.35872 31.4973 5.13997 31.4973 4.88477C31.4973 4.62956 31.5839 4.41081 31.757 4.22852C31.9393 4.05534 32.1581 3.96875 32.4133 3.96875H36.5422C36.7974 3.96875 37.0116 4.0599 37.1848 4.24219C37.3671 4.41536 37.4582 4.62956 37.4582 4.88477ZM43.3863 0.90625C44.0244 0.942708 44.5484 1.1888 44.9586 1.64453C45.3688 2.09115 45.665 2.60156 45.8473 3.17578C46.0296 3.75 46.1207 4.33789 46.1207 4.93945C46.1207 5.54102 46.0296 6.12891 45.8473 6.70312C45.6741 7.27734 45.3779 7.79232 44.9586 8.24805C44.5484 8.69466 44.0244 8.9362 43.3863 8.97266H38.3551C38.109 8.96354 37.8994 8.87695 37.7262 8.71289C37.5621 8.53971 37.4755 8.33008 37.4664 8.08398V4.69336C37.4755 4.43815 37.5712 4.22852 37.7535 4.06445C37.9358 3.89128 38.1546 3.80469 38.4098 3.80469C38.6559 3.8138 38.8655 3.90495 39.0387 4.07812C39.2119 4.24219 39.303 4.44727 39.3121 4.69336V6.77148C39.3121 7.01758 39.4397 7.14062 39.6949 7.14062H42.9215C43.2678 7.1224 43.5549 6.99023 43.7828 6.74414C44.0107 6.49805 44.1747 6.22005 44.275 5.91016C44.3844 5.59115 44.4391 5.26758 44.4391 4.93945C44.4391 4.61133 44.3844 4.29232 44.275 3.98242C44.1747 3.66341 44.0107 3.38086 43.7828 3.13477C43.5549 2.88867 43.2678 2.75651 42.9215 2.73828H38.3551C37.8082 2.69271 37.512 2.39648 37.4664 1.84961C37.4664 1.5944 37.5484 1.37565 37.7125 1.19336C37.8857 1.01107 38.0999 0.915365 38.3551 0.90625H43.3863ZM47.6191 3.87305C47.2546 3.87305 46.9492 3.74544 46.7031 3.49023C46.4661 3.23503 46.3477 2.92057 46.3477 2.54688C46.3477 2.16406 46.4661 1.84505 46.7031 1.58984C46.9492 1.33464 47.2546 1.20703 47.6191 1.20703C47.9928 1.20703 48.2982 1.33464 48.5352 1.58984C48.7812 1.84505 48.9043 2.16406 48.9043 2.54688C48.9043 2.92969 48.7812 3.2487 48.5352 3.50391C48.2891 3.75 47.9837 3.87305 47.6191 3.87305ZM47.6191 9.19141C47.2546 9.19141 46.9492 9.0638 46.7031 8.80859C46.4661 8.55339 46.3477 8.23438 46.3477 7.85156C46.3477 7.46875 46.4661 7.14974 46.7031 6.89453C46.9492 6.63932 47.2546 6.51172 47.6191 6.51172C47.9837 6.51172 48.2891 6.63932 48.5352 6.89453C48.7812 7.14974 48.9043 7.46875 48.9043 7.85156C48.9043 8.23438 48.7812 8.55339 48.5352 8.80859C48.2891 9.0638 47.9837 9.19141 47.6191 9.19141ZM52.2484 0.537109C52.5674 0.537109 52.8773 0.591797 53.1781 0.701172C53.488 0.810547 53.7842 0.970052 54.0668 1.17969C54.1124 1.22526 54.1625 1.27083 54.2172 1.31641C54.2628 1.27083 54.3129 1.22526 54.3676 1.17969C54.6501 0.970052 54.9418 0.810547 55.2426 0.701172C55.5525 0.591797 55.8624 0.537109 56.1723 0.537109C56.4913 0.537109 56.8012 0.591797 57.102 0.701172C57.4118 0.810547 57.7035 0.974609 57.977 1.19336C58.2595 1.40299 58.5056 1.68555 58.7152 2.04102C58.934 2.39648 59.0434 2.82031 59.0434 3.3125V8.24805C58.9887 8.79492 58.6879 9.09115 58.141 9.13672C57.8858 9.13672 57.6625 9.05469 57.4711 8.89062C57.2888 8.71745 57.1977 8.50326 57.1977 8.24805V3.42188C57.1977 3.20312 57.1566 3.02083 57.0746 2.875C56.9926 2.72005 56.9014 2.60156 56.8012 2.51953C56.7009 2.42839 56.5961 2.36458 56.4867 2.32812C56.3773 2.28255 56.268 2.25977 56.1586 2.25977C56.0492 2.25977 55.9398 2.28255 55.8305 2.32812C55.7302 2.36458 55.6299 2.42839 55.5297 2.51953C55.4294 2.60156 55.3383 2.72005 55.2562 2.875C55.1742 3.02083 55.1286 3.20312 55.1195 3.42188V8.24805C55.0648 8.79492 54.7641 9.09115 54.2172 9.13672C53.962 9.13672 53.7387 9.05469 53.5473 8.89062C53.365 8.71745 53.2738 8.50326 53.2738 8.24805V3.42188C53.2738 3.20312 53.2328 3.02083 53.1508 2.875C53.0687 2.72005 52.9776 2.60156 52.8773 2.51953C52.7771 2.42839 52.6723 2.36458 52.5629 2.32812C52.4535 2.28255 52.3441 2.25977 52.2348 2.25977C52.1254 2.25977 52.016 2.28255 51.9066 2.32812C51.8064 2.36458 51.7061 2.42839 51.6059 2.51953C51.5056 2.60156 51.4145 2.72005 51.3324 2.875C51.2504 3.02083 51.2048 3.20312 51.1957 3.42188V8.24805C51.1501 8.79492 50.8539 9.09115 50.307 9.13672C50.0518 9.13672 49.8285 9.05469 49.6371 8.89062C49.4548 8.71745 49.3637 8.50326 49.3637 8.24805V3.3125C49.3819 2.82031 49.4958 2.39648 49.7055 2.04102C49.9151 1.68555 50.1612 1.40299 50.4437 1.19336C50.7263 0.974609 51.018 0.810547 51.3187 0.701172C51.6286 0.591797 51.9385 0.537109 52.2484 0.537109ZM61.909 0.90625H62.5379H67.1863C67.4415 0.915365 67.6512 1.01107 67.8152 1.19336C67.9884 1.37565 68.075 1.5944 68.075 1.84961C68.0294 2.39648 67.7332 2.69271 67.1863 2.73828H62.3738C62.0275 2.75651 61.7404 2.88867 61.5125 3.13477C61.2846 3.38086 61.116 3.66341 61.0066 3.98242C60.9064 4.29232 60.8563 4.61133 60.8563 4.93945C60.8563 5.26758 60.9064 5.59115 61.0066 5.91016C61.116 6.22005 61.2846 6.49805 61.5125 6.74414C61.7404 6.99023 62.0275 7.1224 62.3738 7.14062H67.1863C67.4415 7.14974 67.6512 7.24544 67.8152 7.42773C67.9884 7.61003 68.075 7.82878 68.075 8.08398C68.0659 8.33008 67.9747 8.53971 67.8016 8.71289C67.6375 8.87695 67.4324 8.96354 67.1863 8.97266H62.1688H61.909C61.271 8.9362 60.7423 8.69466 60.323 8.24805C59.9129 7.79232 59.6167 7.27734 59.4344 6.70312C59.2612 6.12891 59.1746 5.54102 59.1746 4.93945C59.1746 4.33789 59.2658 3.75 59.448 3.17578C59.6303 2.60156 59.9266 2.09115 60.3367 1.64453C60.7469 1.1888 61.271 0.942708 61.909 0.90625ZM68.0477 4.88477C68.0477 5.13997 67.9565 5.35417 67.7742 5.52734C67.601 5.70964 67.3868 5.80078 67.1316 5.80078H63.0027C62.7475 5.80078 62.5288 5.71419 62.3465 5.54102C62.1733 5.35872 62.0867 5.13997 62.0867 4.88477C62.0867 4.62956 62.1733 4.41081 62.3465 4.22852C62.5288 4.05534 62.7475 3.96875 63.0027 3.96875H67.1316C67.3868 3.96875 67.601 4.0599 67.7742 4.24219C67.9565 4.41536 68.0477 4.62956 68.0477 4.88477Z" fill="#2F2F2F"/>
</svg>
