<svg width="68" height="10" viewBox="0 0 68 10" fill="none" xmlns="http://www.w3.org/2000/svg">
<path d="M4.43223 0.537109C4.90619 0.537109 5.37103 0.591797 5.82676 0.701172C6.2916 0.810547 6.73366 0.974609 7.15293 1.19336C7.5722 1.40299 7.94134 1.68555 8.26035 2.04102C8.58848 2.39648 8.76621 2.82031 8.79356 3.3125V3.88672V8.24805C8.73887 8.79492 8.43809 9.09115 7.89121 9.13672C7.636 9.13672 7.4127 9.05469 7.22129 8.89062C7.039 8.71745 6.94785 8.50326 6.94785 8.24805V3.73633C6.92962 3.45378 6.82025 3.22135 6.61973 3.03906C6.42832 2.84766 6.20957 2.69727 5.96348 2.58789C5.7265 2.47852 5.47585 2.39648 5.21152 2.3418C4.95632 2.28711 4.69655 2.25977 4.43223 2.25977C4.16791 2.25977 3.90358 2.28711 3.63926 2.3418C3.38405 2.39648 3.1334 2.47852 2.88731 2.58789C2.65033 2.69727 2.43158 2.84766 2.23106 3.03906C2.03965 3.22135 1.93483 3.45378 1.9166 3.73633V8.24805C1.87103 8.79492 1.57481 9.09115 1.02793 9.13672C0.772723 9.13672 0.549416 9.05469 0.358009 8.89062C0.175718 8.71745 0.0845718 8.50326 0.0845718 8.24805V3.88672V3.3125C0.111916 2.82031 0.285093 2.39648 0.604103 2.04102C0.923114 1.68555 1.29225 1.40299 1.71152 1.19336C2.1308 0.974609 2.5683 0.810547 3.02402 0.701172C3.48887 0.591797 3.95827 0.537109 4.43223 0.537109ZM12.1924 6.85352C12.1924 6.59831 12.279 6.38411 12.4522 6.21094C12.6344 6.02865 12.8532 5.9375 13.1084 5.9375H15.2002L14.8447 4.92578C14.6989 4.55208 14.5531 4.20117 14.4072 3.87305C14.2705 3.53581 14.111 3.23047 13.9287 2.95703C13.7647 2.68359 13.5778 2.53776 13.3682 2.51953C13.1494 2.53776 12.9535 2.68359 12.7803 2.95703C12.6071 3.23047 12.4476 3.53581 12.3018 3.87305C12.165 4.20117 12.0238 4.55208 11.8779 4.92578L10.5791 8.48047C10.488 8.67188 10.3695 8.83138 10.2236 8.95898C10.0869 9.07747 9.87728 9.13672 9.59473 9.13672C9.33041 9.13672 9.11166 9.04557 8.93848 8.86328C8.77442 8.68099 8.7015 8.46224 8.71973 8.20703C8.72884 8.08854 8.75619 7.97917 8.80176 7.87891L10.3057 3.99609C10.7249 2.97526 11.1442 2.15039 11.5635 1.52148C11.9736 0.901693 12.5752 0.58724 13.3682 0.578125C14.152 0.58724 14.749 0.901693 15.1592 1.52148C15.5785 2.13216 15.9977 2.95703 16.417 3.99609L17.9209 7.87891C17.9665 7.97917 17.9938 8.08854 18.0029 8.20703C18.0212 8.46224 17.9437 8.68099 17.7705 8.86328C17.6064 9.04557 17.3923 9.13672 17.1279 9.13672C16.8272 9.13672 16.6038 9.07747 16.458 8.95898C16.3213 8.83138 16.2074 8.67188 16.1162 8.48047L15.8564 7.76953H13.1084C12.8532 7.76953 12.639 7.67839 12.4658 7.49609C12.2835 7.32292 12.1924 7.10872 12.1924 6.85352ZM20.8686 0.537109C21.1876 0.537109 21.4975 0.591797 21.7982 0.701172C22.1081 0.810547 22.4044 0.970052 22.6869 1.17969C22.7325 1.22526 22.7826 1.27083 22.8373 1.31641C22.8829 1.27083 22.933 1.22526 22.9877 1.17969C23.2702 0.970052 23.5619 0.810547 23.8627 0.701172C24.1726 0.591797 24.4825 0.537109 24.7924 0.537109C25.1114 0.537109 25.4213 0.591797 25.7221 0.701172C26.032 0.810547 26.3236 0.974609 26.5971 1.19336C26.8796 1.40299 27.1257 1.68555 27.3354 2.04102C27.5541 2.39648 27.6635 2.82031 27.6635 3.3125V8.24805C27.6088 8.79492 27.308 9.09115 26.7611 9.13672C26.5059 9.13672 26.2826 9.05469 26.0912 8.89062C25.9089 8.71745 25.8178 8.50326 25.8178 8.24805V3.42188C25.8178 3.20312 25.7768 3.02083 25.6947 2.875C25.6127 2.72005 25.5216 2.60156 25.4213 2.51953C25.321 2.42839 25.2162 2.36458 25.1068 2.32812C24.9975 2.28255 24.8881 2.25977 24.7787 2.25977C24.6693 2.25977 24.56 2.28255 24.4506 2.32812C24.3503 2.36458 24.2501 2.42839 24.1498 2.51953C24.0495 2.60156 23.9584 2.72005 23.8764 2.875C23.7943 3.02083 23.7488 3.20312 23.7397 3.42188V8.24805C23.685 8.79492 23.3842 9.09115 22.8373 9.13672C22.5821 9.13672 22.3588 9.05469 22.1674 8.89062C21.9851 8.71745 21.8939 8.50326 21.8939 8.24805V3.42188C21.8939 3.20312 21.8529 3.02083 21.7709 2.875C21.6889 2.72005 21.5977 2.60156 21.4975 2.51953C21.3972 2.42839 21.2924 2.36458 21.183 2.32812C21.0736 2.28255 20.9643 2.25977 20.8549 2.25977C20.7455 2.25977 20.6361 2.28255 20.5268 2.32812C20.4265 2.36458 20.3262 2.42839 20.226 2.51953C20.1257 2.60156 20.0346 2.72005 19.9525 2.875C19.8705 3.02083 19.8249 3.20312 19.8158 3.42188V8.24805C19.7702 8.79492 19.474 9.09115 18.9272 9.13672C18.6719 9.13672 18.4486 9.05469 18.2572 8.89062C18.0749 8.71745 17.9838 8.50326 17.9838 8.24805V3.3125C18.002 2.82031 18.116 2.39648 18.3256 2.04102C18.5352 1.68555 18.7813 1.40299 19.0639 1.19336C19.3464 0.974609 19.6381 0.810547 19.9389 0.701172C20.2488 0.591797 20.5587 0.537109 20.8686 0.537109ZM30.5291 0.90625H31.158H35.8064C36.0617 0.915365 36.2713 1.01107 36.4354 1.19336C36.6085 1.37565 36.6951 1.5944 36.6951 1.84961C36.6495 2.39648 36.3533 2.69271 35.8064 2.73828H30.9939C30.6476 2.75651 30.3605 2.88867 30.1326 3.13477C29.9048 3.38086 29.7361 3.66341 29.6268 3.98242C29.5265 4.29232 29.4764 4.61133 29.4764 4.93945C29.4764 5.26758 29.5265 5.59115 29.6268 5.91016C29.7361 6.22005 29.9048 6.49805 30.1326 6.74414C30.3605 6.99023 30.6476 7.1224 30.9939 7.14062H35.8064C36.0617 7.14974 36.2713 7.24544 36.4354 7.42773C36.6085 7.61003 36.6951 7.82878 36.6951 8.08398C36.686 8.33008 36.5949 8.53971 36.4217 8.71289C36.2576 8.87695 36.0525 8.96354 35.8064 8.97266H30.7889H30.5291C29.8911 8.9362 29.3624 8.69466 28.9432 8.24805C28.533 7.79232 28.2368 7.27734 28.0545 6.70312C27.8813 6.12891 27.7947 5.54102 27.7947 4.93945C27.7947 4.33789 27.8859 3.75 28.0682 3.17578C28.2505 2.60156 28.5467 2.09115 28.9568 1.64453C29.367 1.1888 29.8911 0.942708 30.5291 0.90625ZM36.6678 4.88477C36.6678 5.13997 36.5766 5.35417 36.3943 5.52734C36.2212 5.70964 36.007 5.80078 35.7518 5.80078H31.6229C31.3676 5.80078 31.1489 5.71419 30.9666 5.54102C30.7934 5.35872 30.7068 5.13997 30.7068 4.88477C30.7068 4.62956 30.7934 4.41081 30.9666 4.22852C31.1489 4.05534 31.3676 3.96875 31.6229 3.96875H35.7518C36.007 3.96875 36.2212 4.0599 36.3943 4.24219C36.5766 4.41536 36.6678 4.62956 36.6678 4.88477ZM42.5959 0.90625C43.2339 0.942708 43.758 1.1888 44.1682 1.64453C44.5783 2.09115 44.8745 2.60156 45.0568 3.17578C45.2391 3.75 45.3303 4.33789 45.3303 4.93945C45.3303 5.54102 45.2391 6.12891 45.0568 6.70312C44.8837 7.27734 44.5874 7.79232 44.1682 8.24805C43.758 8.69466 43.2339 8.9362 42.5959 8.97266H37.5647C37.3186 8.96354 37.1089 8.87695 36.9357 8.71289C36.7717 8.53971 36.6851 8.33008 36.676 8.08398V4.69336C36.6851 4.43815 36.7808 4.22852 36.9631 4.06445C37.1454 3.89128 37.3641 3.80469 37.6193 3.80469C37.8654 3.8138 38.0751 3.90495 38.2482 4.07812C38.4214 4.24219 38.5126 4.44727 38.5217 4.69336V6.77148C38.5217 7.01758 38.6493 7.14062 38.9045 7.14062H42.1311C42.4774 7.1224 42.7645 6.99023 42.9924 6.74414C43.2203 6.49805 43.3843 6.22005 43.4846 5.91016C43.5939 5.59115 43.6486 5.26758 43.6486 4.93945C43.6486 4.61133 43.5939 4.29232 43.4846 3.98242C43.3843 3.66341 43.2203 3.38086 42.9924 3.13477C42.7645 2.88867 42.4774 2.75651 42.1311 2.73828H37.5647C37.0178 2.69271 36.7216 2.39648 36.676 1.84961C36.676 1.5944 36.758 1.37565 36.9221 1.19336C37.0953 1.01107 37.3094 0.915365 37.5647 0.90625H42.5959ZM46.8287 3.87305C46.4641 3.87305 46.1588 3.74544 45.9127 3.49023C45.6757 3.23503 45.5572 2.92057 45.5572 2.54688C45.5572 2.16406 45.6757 1.84505 45.9127 1.58984C46.1588 1.33464 46.4641 1.20703 46.8287 1.20703C47.2024 1.20703 47.5077 1.33464 47.7447 1.58984C47.9908 1.84505 48.1139 2.16406 48.1139 2.54688C48.1139 2.92969 47.9908 3.2487 47.7447 3.50391C47.4986 3.75 47.1933 3.87305 46.8287 3.87305ZM46.8287 9.19141C46.4641 9.19141 46.1588 9.0638 45.9127 8.80859C45.6757 8.55339 45.5572 8.23438 45.5572 7.85156C45.5572 7.46875 45.6757 7.14974 45.9127 6.89453C46.1588 6.63932 46.4641 6.51172 46.8287 6.51172C47.1933 6.51172 47.4986 6.63932 47.7447 6.89453C47.9908 7.14974 48.1139 7.46875 48.1139 7.85156C48.1139 8.23438 47.9908 8.55339 47.7447 8.80859C47.4986 9.0638 47.1933 9.19141 46.8287 9.19141ZM51.458 0.537109C51.777 0.537109 52.0869 0.591797 52.3877 0.701172C52.6976 0.810547 52.9938 0.970052 53.2764 1.17969C53.3219 1.22526 53.3721 1.27083 53.4268 1.31641C53.4723 1.27083 53.5225 1.22526 53.5771 1.17969C53.8597 0.970052 54.1514 0.810547 54.4521 0.701172C54.762 0.591797 55.0719 0.537109 55.3818 0.537109C55.7008 0.537109 56.0107 0.591797 56.3115 0.701172C56.6214 0.810547 56.9131 0.974609 57.1865 1.19336C57.4691 1.40299 57.7152 1.68555 57.9248 2.04102C58.1436 2.39648 58.2529 2.82031 58.2529 3.3125V8.24805C58.1982 8.79492 57.8975 9.09115 57.3506 9.13672C57.0954 9.13672 56.8721 9.05469 56.6807 8.89062C56.4984 8.71745 56.4072 8.50326 56.4072 8.24805V3.42188C56.4072 3.20312 56.3662 3.02083 56.2842 2.875C56.2021 2.72005 56.111 2.60156 56.0107 2.51953C55.9105 2.42839 55.8057 2.36458 55.6963 2.32812C55.5869 2.28255 55.4775 2.25977 55.3682 2.25977C55.2588 2.25977 55.1494 2.28255 55.04 2.32812C54.9398 2.36458 54.8395 2.42839 54.7393 2.51953C54.639 2.60156 54.5479 2.72005 54.4658 2.875C54.3838 3.02083 54.3382 3.20312 54.3291 3.42188V8.24805C54.2744 8.79492 53.9736 9.09115 53.4268 9.13672C53.1715 9.13672 52.9482 9.05469 52.7568 8.89062C52.5745 8.71745 52.4834 8.50326 52.4834 8.24805V3.42188C52.4834 3.20312 52.4424 3.02083 52.3604 2.875C52.2783 2.72005 52.1872 2.60156 52.0869 2.51953C51.9867 2.42839 51.8818 2.36458 51.7725 2.32812C51.6631 2.28255 51.5537 2.25977 51.4443 2.25977C51.335 2.25977 51.2256 2.28255 51.1162 2.32812C51.016 2.36458 50.9157 2.42839 50.8154 2.51953C50.7152 2.60156 50.624 2.72005 50.542 2.875C50.46 3.02083 50.4144 3.20312 50.4053 3.42188V8.24805C50.3597 8.79492 50.0635 9.09115 49.5166 9.13672C49.2614 9.13672 49.0381 9.05469 48.8467 8.89062C48.6644 8.71745 48.5732 8.50326 48.5732 8.24805V3.3125C48.5915 2.82031 48.7054 2.39648 48.915 2.04102C49.1247 1.68555 49.3708 1.40299 49.6533 1.19336C49.9359 0.974609 50.2275 0.810547 50.5283 0.701172C50.8382 0.591797 51.1481 0.537109 51.458 0.537109ZM61.1186 0.90625H61.7475H66.3959C66.6511 0.915365 66.8607 1.01107 67.0248 1.19336C67.198 1.37565 67.2846 1.5944 67.2846 1.84961C67.239 2.39648 66.9428 2.69271 66.3959 2.73828H61.5834C61.2371 2.75651 60.9499 2.88867 60.7221 3.13477C60.4942 3.38086 60.3256 3.66341 60.2162 3.98242C60.116 4.29232 60.0658 4.61133 60.0658 4.93945C60.0658 5.26758 60.116 5.59115 60.2162 5.91016C60.3256 6.22005 60.4942 6.49805 60.7221 6.74414C60.9499 6.99023 61.2371 7.1224 61.5834 7.14062H66.3959C66.6511 7.14974 66.8607 7.24544 67.0248 7.42773C67.198 7.61003 67.2846 7.82878 67.2846 8.08398C67.2755 8.33008 67.1843 8.53971 67.0111 8.71289C66.8471 8.87695 66.642 8.96354 66.3959 8.97266H61.3783H61.1186C60.4805 8.9362 59.9519 8.69466 59.5326 8.24805C59.1225 7.79232 58.8262 7.27734 58.644 6.70312C58.4708 6.12891 58.3842 5.54102 58.3842 4.93945C58.3842 4.33789 58.4753 3.75 58.6576 3.17578C58.8399 2.60156 59.1361 2.09115 59.5463 1.64453C59.9565 1.1888 60.4805 0.942708 61.1186 0.90625ZM67.2572 4.88477C67.2572 5.13997 67.1661 5.35417 66.9838 5.52734C66.8106 5.70964 66.5964 5.80078 66.3412 5.80078H62.2123C61.9571 5.80078 61.7384 5.71419 61.5561 5.54102C61.3829 5.35872 61.2963 5.13997 61.2963 4.88477C61.2963 4.62956 61.3829 4.41081 61.5561 4.22852C61.7384 4.05534 61.9571 3.96875 62.2123 3.96875H66.3412C66.5964 3.96875 66.8106 4.0599 66.9838 4.24219C67.1661 4.41536 67.2572 4.62956 67.2572 4.88477Z" fill="#4DBFFF"/>
</svg>
